<?xml version="1.0" standalone="no"?><!DOCTYPE svg PUBLIC "-//W3C//DTD SVG 1.1//EN" "http://www.w3.org/Graphics/SVG/1.1/DTD/svg11.dtd"><svg t="1614751904393" class="icon" viewBox="0 0 1024 1024" version="1.1" xmlns="http://www.w3.org/2000/svg" p-id="11678" xmlns:xlink="http://www.w3.org/1999/xlink" width="200" height="200"><defs><style type="text/css">@font-face { font-family: "MICROSOFT YAHEI"; src: local("MICROSOFT YAHEI"); font-weight: 400; }
@font-face { font-family: "MICROSOFT YAHEI"; font-weight: 400; src: local("Microsoft YaHei UI"), local("Microsoft YaHei"), local("微软雅黑"), local("微軟雅黑"), local("WenQuanYi Micro Hei"), local("Droid Sans Fallback"); unicode-range: U+2E80-9FFF, U+F900-FAFF, U+FE30-FE6F, U+FF00-FFEF, U+1B000-1B0FF, U+20000-2FA1F; }
@font-face { font-family: "MICROSOFT YAHEI"; font-weight: bold; src: local("Microsoft YaHei UI"), local("Microsoft YaHei"), local("微软雅黑"), local("微軟雅黑"), local("WenQuanYi Micro Hei"), local("Droid Sans Fallback"); unicode-range: U+2E80-9FFF, U+F900-FAFF, U+FE30-FE6F, U+FF00-FFEF, U+1B000-1B0FF, U+20000-2FA1F; }
@font-face { font-family: TAHOMA; src: local("TAHOMA"); font-weight: 400; }
@font-face { font-family: TAHOMA; font-weight: 400; src: local("Microsoft YaHei UI"), local("Microsoft YaHei"), local("微软雅黑"), local("微軟雅黑"), local("WenQuanYi Micro Hei"), local("Droid Sans Fallback"); unicode-range: U+2E80-9FFF, U+F900-FAFF, U+FE30-FE6F, U+FF00-FFEF, U+1B000-1B0FF, U+20000-2FA1F; }
@font-face { font-family: TAHOMA; font-weight: bold; src: local("Microsoft YaHei UI"), local("Microsoft YaHei"), local("微软雅黑"), local("微軟雅黑"), local("WenQuanYi Micro Hei"), local("Droid Sans Fallback"); unicode-range: U+2E80-9FFF, U+F900-FAFF, U+FE30-FE6F, U+FF00-FFEF, U+1B000-1B0FF, U+20000-2FA1F; }
@font-face { font-family: 微软雅黑; src: local("微软雅黑"); font-weight: 400; }
@font-face { font-family: 微软雅黑; font-weight: 400; src: local("Microsoft YaHei UI"), local("Microsoft YaHei"), local("微软雅黑"), local("微軟雅黑"), local("WenQuanYi Micro Hei"), local("Droid Sans Fallback"); unicode-range: U+2E80-9FFF, U+F900-FAFF, U+FE30-FE6F, U+FF00-FFEF, U+1B000-1B0FF, U+20000-2FA1F; }
@font-face { font-family: 微软雅黑; font-weight: bold; src: local("Microsoft YaHei UI"), local("Microsoft YaHei"), local("微软雅黑"), local("微軟雅黑"), local("WenQuanYi Micro Hei"), local("Droid Sans Fallback"); unicode-range: U+2E80-9FFF, U+F900-FAFF, U+FE30-FE6F, U+FF00-FFEF, U+1B000-1B0FF, U+20000-2FA1F; }
</style></defs><path d="M164.936493 887.071398c-27.030633 0.001023-39.545668-15.863293-42.319851-19.950378l-0.00614 0.004093c-10.308787-15.271822-10.484795-36.84107-0.520863-64.108087 6.477528-17.72571 15.138792-32.013111 15.504112-32.612769l279.916201-458.789101 0.880043-8.670473c0.237407-66.532299 26.257014-129.043005 73.329099-176.114067 47.288003-47.285956 110.158912-73.328076 177.035042-73.328076 66.875107 0 129.746016 26.041096 177.032996 73.328076 47.285956 47.286979 73.328076 110.157889 73.328076 177.032996 0 66.875107-26.042119 129.74704-73.328076 177.035042-47.286979 47.286979-110.157889 73.330122-177.032996 73.330122-30.109762 0-59.556421-5.29254-87.521333-15.72924-33.3035-12.42703-64.256466-32.344662-89.512686-57.601906-8.741082-8.741082-16.902972-18.205641-24.25645-28.131711-10.04068-13.552667-18.72855-28.15627-25.823132-43.407626-4.152577-8.9263-0.282433-19.527752 8.642844-23.680329 8.925277-4.152577 19.527752-0.282433 23.680329 8.642844 6.082532 13.075807 13.533224 25.599028 22.144346 37.222763 6.311753 8.518001 13.316284 16.642029 20.820188 24.14491 21.670555 21.670555 48.216141 38.756699 76.769454 49.41034 23.965831 8.944719 49.218982 13.480013 75.058486 13.480013 118.392434 0 214.71113-96.320743 214.71113-214.716246 0-118.392434-96.318696-214.71113-214.71113-214.71113-118.394481 0-214.716246 96.318696-214.716246 214.71113l0 0.902556-1.877767 18.504446-284.130176 465.696418c-12.341073 20.35049-21.901823 49.278333-15.870456 58.214866l0.098237 0.145309c1.003863 1.100054 13.43294 13.189394 53.552683-10.200316l329.909825-232.333486c3.479241-2.52859 32.94125-23.0029 76.508511-24.77936 9.834996-0.407276 18.135032 7.248078 18.535145 17.084097s-7.248078 18.135032-17.084097 18.535145c-33.952276 1.38351-56.652278 17.73799-56.872289 17.902742l-0.432859 0.314155L225.124294 867.125113l-0.63138 0.370437C199.581548 882.142132 180.00263 887.071398 164.936493 887.071398z" p-id="11679"></path><path d="M122.115222 957.091124c-7.320733 0-14.183024-4.544503-16.786315-11.834536-15.761985-44.134173 17.750269-82.297354 19.183921-83.899852l26.567076 23.771403 0.065492-0.073678c-0.209778 0.23843-20.819165 24.201192-12.243859 48.212048 3.311419 9.271154-1.51961 19.469424-10.790764 22.781866C126.128629 956.75548 124.104529 957.091124 122.115222 957.091124z" p-id="11680"></path></svg>