<?xml version="1.0" standalone="no"?><!DOCTYPE svg PUBLIC "-//W3C//DTD SVG 1.1//EN" "http://www.w3.org/Graphics/SVG/1.1/DTD/svg11.dtd"><svg t="1614752045842" class="icon" viewBox="0 0 1024 1024" version="1.1" xmlns="http://www.w3.org/2000/svg" p-id="14679" xmlns:xlink="http://www.w3.org/1999/xlink" width="200" height="200"><defs><style type="text/css">@font-face { font-family: "MICROSOFT YAHEI"; src: local("MICROSOFT YAHEI"); font-weight: 400; }
@font-face { font-family: "MICROSOFT YAHEI"; font-weight: 400; src: local("Microsoft YaHei UI"), local("Microsoft YaHei"), local("微软雅黑"), local("微軟雅黑"), local("WenQuanYi Micro Hei"), local("Droid Sans Fallback"); unicode-range: U+2E80-9FFF, U+F900-FAFF, U+FE30-FE6F, U+FF00-FFEF, U+1B000-1B0FF, U+20000-2FA1F; }
@font-face { font-family: "MICROSOFT YAHEI"; font-weight: bold; src: local("Microsoft YaHei UI"), local("Microsoft YaHei"), local("微软雅黑"), local("微軟雅黑"), local("WenQuanYi Micro Hei"), local("Droid Sans Fallback"); unicode-range: U+2E80-9FFF, U+F900-FAFF, U+FE30-FE6F, U+FF00-FFEF, U+1B000-1B0FF, U+20000-2FA1F; }
@font-face { font-family: TAHOMA; src: local("TAHOMA"); font-weight: 400; }
@font-face { font-family: TAHOMA; font-weight: 400; src: local("Microsoft YaHei UI"), local("Microsoft YaHei"), local("微软雅黑"), local("微軟雅黑"), local("WenQuanYi Micro Hei"), local("Droid Sans Fallback"); unicode-range: U+2E80-9FFF, U+F900-FAFF, U+FE30-FE6F, U+FF00-FFEF, U+1B000-1B0FF, U+20000-2FA1F; }
@font-face { font-family: TAHOMA; font-weight: bold; src: local("Microsoft YaHei UI"), local("Microsoft YaHei"), local("微软雅黑"), local("微軟雅黑"), local("WenQuanYi Micro Hei"), local("Droid Sans Fallback"); unicode-range: U+2E80-9FFF, U+F900-FAFF, U+FE30-FE6F, U+FF00-FFEF, U+1B000-1B0FF, U+20000-2FA1F; }
@font-face { font-family: 微软雅黑; src: local("微软雅黑"); font-weight: 400; }
@font-face { font-family: 微软雅黑; font-weight: 400; src: local("Microsoft YaHei UI"), local("Microsoft YaHei"), local("微软雅黑"), local("微軟雅黑"), local("WenQuanYi Micro Hei"), local("Droid Sans Fallback"); unicode-range: U+2E80-9FFF, U+F900-FAFF, U+FE30-FE6F, U+FF00-FFEF, U+1B000-1B0FF, U+20000-2FA1F; }
@font-face { font-family: 微软雅黑; font-weight: bold; src: local("Microsoft YaHei UI"), local("Microsoft YaHei"), local("微软雅黑"), local("微軟雅黑"), local("WenQuanYi Micro Hei"), local("Droid Sans Fallback"); unicode-range: U+2E80-9FFF, U+F900-FAFF, U+FE30-FE6F, U+FF00-FFEF, U+1B000-1B0FF, U+20000-2FA1F; }
</style></defs><path d="M864 896H160c-52.8 0-96-43.2-96-96V608c0-52.8 43.2-96 96-96s96 43.2 96 96v128c0 17.6-14.4 32-32 32s-32-14.4-32-32v-128c0-17.6-14.4-32-32-32s-32 14.4-32 32v192c0 17.6 14.4 32 32 32h704c17.6 0 32-14.4 32-32V608c0-17.6-14.4-32-32-32s-32 14.4-32 32v128c0 17.6-14.4 32-32 32s-32-14.4-32-32v-128c0-52.8 43.2-96 96-96s96 43.2 96 96v192c0 52.8-43.2 96-96 96z" p-id="14680"></path><path d="M224 960c-17.6 0-32-14.4-32-32v-32c0-17.6 14.4-32 32-32s32 14.4 32 32v32c0 17.6-14.4 32-32 32zM800 960c-17.6 0-32-14.4-32-32v-32c0-17.6 14.4-32 32-32s32 14.4 32 32v32c0 17.6-14.4 32-32 32zM864 544c-17.6 0-32-14.4-32-32v-64c0-158.4-129.6-288-288-288h-64c-158.4 0-288 129.6-288 288v64c0 17.6-14.4 32-32 32s-32-14.4-32-32v-64C128 254.4 286.4 96 480 96h64c193.6 0 352 158.4 352 352v64c0 17.6-14.4 32-32 32z" p-id="14681"></path></svg>