<?xml version="1.0" standalone="no"?><!DOCTYPE svg PUBLIC "-//W3C//DTD SVG 1.1//EN" "http://www.w3.org/Graphics/SVG/1.1/DTD/svg11.dtd"><svg t="1614736245060" class="icon" viewBox="0 0 1024 1024" version="1.1" xmlns="http://www.w3.org/2000/svg" p-id="2123" xmlns:xlink="http://www.w3.org/1999/xlink" width="200" height="200"><defs><style type="text/css">@font-face { font-family: "MICROSOFT YAHEI"; src: local("MICROSOFT YAHEI"); font-weight: 400; }
@font-face { font-family: "MICROSOFT YAHEI"; font-weight: 400; src: local("Microsoft YaHei UI"), local("Microsoft YaHei"), local("微软雅黑"), local("微軟雅黑"), local("WenQuanYi Micro Hei"), local("Droid Sans Fallback"); unicode-range: U+2E80-9FFF, U+F900-FAFF, U+FE30-FE6F, U+FF00-FFEF, U+1B000-1B0FF, U+20000-2FA1F; }
@font-face { font-family: "MICROSOFT YAHEI"; font-weight: bold; src: local("Microsoft YaHei UI"), local("Microsoft YaHei"), local("微软雅黑"), local("微軟雅黑"), local("WenQuanYi Micro Hei"), local("Droid Sans Fallback"); unicode-range: U+2E80-9FFF, U+F900-FAFF, U+FE30-FE6F, U+FF00-FFEF, U+1B000-1B0FF, U+20000-2FA1F; }
@font-face { font-family: TAHOMA; src: local("TAHOMA"); font-weight: 400; }
@font-face { font-family: TAHOMA; font-weight: 400; src: local("Microsoft YaHei UI"), local("Microsoft YaHei"), local("微软雅黑"), local("微軟雅黑"), local("WenQuanYi Micro Hei"), local("Droid Sans Fallback"); unicode-range: U+2E80-9FFF, U+F900-FAFF, U+FE30-FE6F, U+FF00-FFEF, U+1B000-1B0FF, U+20000-2FA1F; }
@font-face { font-family: TAHOMA; font-weight: bold; src: local("Microsoft YaHei UI"), local("Microsoft YaHei"), local("微软雅黑"), local("微軟雅黑"), local("WenQuanYi Micro Hei"), local("Droid Sans Fallback"); unicode-range: U+2E80-9FFF, U+F900-FAFF, U+FE30-FE6F, U+FF00-FFEF, U+1B000-1B0FF, U+20000-2FA1F; }
@font-face { font-family: 微软雅黑; src: local("微软雅黑"); font-weight: 400; }
@font-face { font-family: 微软雅黑; font-weight: 400; src: local("Microsoft YaHei UI"), local("Microsoft YaHei"), local("微软雅黑"), local("微軟雅黑"), local("WenQuanYi Micro Hei"), local("Droid Sans Fallback"); unicode-range: U+2E80-9FFF, U+F900-FAFF, U+FE30-FE6F, U+FF00-FFEF, U+1B000-1B0FF, U+20000-2FA1F; }
@font-face { font-family: 微软雅黑; font-weight: bold; src: local("Microsoft YaHei UI"), local("Microsoft YaHei"), local("微软雅黑"), local("微軟雅黑"), local("WenQuanYi Micro Hei"), local("Droid Sans Fallback"); unicode-range: U+2E80-9FFF, U+F900-FAFF, U+FE30-FE6F, U+FF00-FFEF, U+1B000-1B0FF, U+20000-2FA1F; }
</style></defs><path d="M583.68 476.16a28.16 28.16 0 0 1 0 55.68H477.44v112a26.88 26.88 0 1 1-53.76 0V531.84H320a28.16 28.16 0 0 1 0-55.68h103.68V364.16H320a28.16 28.16 0 0 1 0-56.32h26.88v-55.68a27.52 27.52 0 0 1 26.24-28.16 27.52 27.52 0 0 1 26.88 28.16v55.68h103.68v-55.68a26.88 26.88 0 1 1 53.76 0v55.68h26.24a28.16 28.16 0 0 1 0 56.32H477.44v112zM768 1024a256 256 0 1 1 256-256 256 256 0 0 1-256 256z m0-448a192 192 0 1 0 192 192 192 192 0 0 0-192-192z" fill="#606266" p-id="2124"></path><path d="M853.12 832h-131.84l24.32 41.6c0 4.48-3.2 12.16-12.8 17.28s-19.84 7.04-21.76 0a779.52 779.52 0 0 1-49.92-82.56 21.12 21.12 0 0 1 20.48-17.28h170.24a21.76 21.76 0 1 1 0 42.88zM873.6 729.6a21.12 21.12 0 0 1-20.48 17.28h-170.24a21.76 21.76 0 1 1 0-42.88h131.84l-24.32-41.6c0-4.48 3.2-12.16 12.8-17.28s19.84-7.04 21.76 0a779.52 779.52 0 0 1 49.92 82.56z" fill="#606266" p-id="2125"></path><path d="M794.24 0H229.76A134.4 134.4 0 0 0 96 133.76v757.76A134.4 134.4 0 0 0 229.76 1024h563.84H384a64 64 0 0 0 0-128H225.92a4.48 4.48 0 0 1 0-3.84V133.76A5.76 5.76 0 0 1 229.76 128h564.48a5.76 5.76 0 0 1 5.76 5.76V320a64 64 0 0 0 128 0V133.76A134.4 134.4 0 0 0 794.24 0z" fill="#606266" p-id="2126"></path></svg>