<?xml version="1.0" standalone="no"?><!DOCTYPE svg PUBLIC "-//W3C//DTD SVG 1.1//EN" "http://www.w3.org/Graphics/SVG/1.1/DTD/svg11.dtd"><svg t="1614736308439" class="icon" viewBox="0 0 1024 1024" version="1.1" xmlns="http://www.w3.org/2000/svg" p-id="1971" xmlns:xlink="http://www.w3.org/1999/xlink" width="200" height="200"><defs><style type="text/css">@font-face { font-family: "MICROSOFT YAHEI"; src: local("MICROSOFT YAHEI"); font-weight: 400; }
@font-face { font-family: "MICROSOFT YAHEI"; font-weight: 400; src: local("Microsoft YaHei UI"), local("Microsoft YaHei"), local("微软雅黑"), local("微軟雅黑"), local("WenQuanYi Micro Hei"), local("Droid Sans Fallback"); unicode-range: U+2E80-9FFF, U+F900-FAFF, U+FE30-FE6F, U+FF00-FFEF, U+1B000-1B0FF, U+20000-2FA1F; }
@font-face { font-family: "MICROSOFT YAHEI"; font-weight: bold; src: local("Microsoft YaHei UI"), local("Microsoft YaHei"), local("微软雅黑"), local("微軟雅黑"), local("WenQuanYi Micro Hei"), local("Droid Sans Fallback"); unicode-range: U+2E80-9FFF, U+F900-FAFF, U+FE30-FE6F, U+FF00-FFEF, U+1B000-1B0FF, U+20000-2FA1F; }
@font-face { font-family: TAHOMA; src: local("TAHOMA"); font-weight: 400; }
@font-face { font-family: TAHOMA; font-weight: 400; src: local("Microsoft YaHei UI"), local("Microsoft YaHei"), local("微软雅黑"), local("微軟雅黑"), local("WenQuanYi Micro Hei"), local("Droid Sans Fallback"); unicode-range: U+2E80-9FFF, U+F900-FAFF, U+FE30-FE6F, U+FF00-FFEF, U+1B000-1B0FF, U+20000-2FA1F; }
@font-face { font-family: TAHOMA; font-weight: bold; src: local("Microsoft YaHei UI"), local("Microsoft YaHei"), local("微软雅黑"), local("微軟雅黑"), local("WenQuanYi Micro Hei"), local("Droid Sans Fallback"); unicode-range: U+2E80-9FFF, U+F900-FAFF, U+FE30-FE6F, U+FF00-FFEF, U+1B000-1B0FF, U+20000-2FA1F; }
@font-face { font-family: 微软雅黑; src: local("微软雅黑"); font-weight: 400; }
@font-face { font-family: 微软雅黑; font-weight: 400; src: local("Microsoft YaHei UI"), local("Microsoft YaHei"), local("微软雅黑"), local("微軟雅黑"), local("WenQuanYi Micro Hei"), local("Droid Sans Fallback"); unicode-range: U+2E80-9FFF, U+F900-FAFF, U+FE30-FE6F, U+FF00-FFEF, U+1B000-1B0FF, U+20000-2FA1F; }
@font-face { font-family: 微软雅黑; font-weight: bold; src: local("Microsoft YaHei UI"), local("Microsoft YaHei"), local("微软雅黑"), local("微軟雅黑"), local("WenQuanYi Micro Hei"), local("Droid Sans Fallback"); unicode-range: U+2E80-9FFF, U+F900-FAFF, U+FE30-FE6F, U+FF00-FFEF, U+1B000-1B0FF, U+20000-2FA1F; }
</style></defs><path d="M823.04 823.04A440.32 440.32 0 0 1 106.666667 682.666667 440.32 440.32 0 0 1 341.333333 106.666667 440.32 440.32 0 0 1 917.333333 341.333333a439.466667 439.466667 0 0 1-94.293333 482.133334zM512 0a512 512 0 1 0 512 512A512 512 0 0 0 512 0z" fill="#5E5C5C" p-id="1972"></path><path d="M701.44 404.906667h-166.826667l118.186667-117.76a35.84 35.84 0 1 0-50.773333-50.773334L512 328.106667 418.986667 235.093333a36.266667 36.266667 0 0 0-51.2 51.2l118.186666 118.186667H321.28a34.56 34.56 0 0 0-34.133333 34.56v3.413333a34.133333 34.133333 0 0 0 34.133333 33.706667h154.453333v64H353.28a34.56 34.56 0 0 0-33.706667 34.986667v3.84a32.426667 32.426667 0 0 0 33.706667 32.853333h122.453333v149.333333a35.84 35.84 0 0 0 72.106667 0v-149.333333h121.6a34.133333 34.133333 0 0 0 34.986667-32.853333v-3.84a35.84 35.84 0 0 0-34.986667-34.986667h-121.6V477.866667h153.6a34.133333 34.133333 0 0 0 34.986667-33.28v-3.84a36.693333 36.693333 0 0 0-34.986667-35.84z" fill="#5E5C5C" p-id="1973"></path></svg>