<?xml version="1.0" standalone="no"?><!DOCTYPE svg PUBLIC "-//W3C//DTD SVG 1.1//EN" "http://www.w3.org/Graphics/SVG/1.1/DTD/svg11.dtd"><svg t="1614752289716" class="icon" viewBox="0 0 1024 1024" version="1.1" xmlns="http://www.w3.org/2000/svg" p-id="17950" xmlns:xlink="http://www.w3.org/1999/xlink" width="200" height="200"><defs><style type="text/css">@font-face { font-family: "MICROSOFT YAHEI"; src: local("MICROSOFT YAHEI"); font-weight: 400; }
@font-face { font-family: "MICROSOFT YAHEI"; font-weight: 400; src: local("Microsoft YaHei UI"), local("Microsoft YaHei"), local("微软雅黑"), local("微軟雅黑"), local("WenQuanYi Micro Hei"), local("Droid Sans Fallback"); unicode-range: U+2E80-9FFF, U+F900-FAFF, U+FE30-FE6F, U+FF00-FFEF, U+1B000-1B0FF, U+20000-2FA1F; }
@font-face { font-family: "MICROSOFT YAHEI"; font-weight: bold; src: local("Microsoft YaHei UI"), local("Microsoft YaHei"), local("微软雅黑"), local("微軟雅黑"), local("WenQuanYi Micro Hei"), local("Droid Sans Fallback"); unicode-range: U+2E80-9FFF, U+F900-FAFF, U+FE30-FE6F, U+FF00-FFEF, U+1B000-1B0FF, U+20000-2FA1F; }
@font-face { font-family: TAHOMA; src: local("TAHOMA"); font-weight: 400; }
@font-face { font-family: TAHOMA; font-weight: 400; src: local("Microsoft YaHei UI"), local("Microsoft YaHei"), local("微软雅黑"), local("微軟雅黑"), local("WenQuanYi Micro Hei"), local("Droid Sans Fallback"); unicode-range: U+2E80-9FFF, U+F900-FAFF, U+FE30-FE6F, U+FF00-FFEF, U+1B000-1B0FF, U+20000-2FA1F; }
@font-face { font-family: TAHOMA; font-weight: bold; src: local("Microsoft YaHei UI"), local("Microsoft YaHei"), local("微软雅黑"), local("微軟雅黑"), local("WenQuanYi Micro Hei"), local("Droid Sans Fallback"); unicode-range: U+2E80-9FFF, U+F900-FAFF, U+FE30-FE6F, U+FF00-FFEF, U+1B000-1B0FF, U+20000-2FA1F; }
@font-face { font-family: 微软雅黑; src: local("微软雅黑"); font-weight: 400; }
@font-face { font-family: 微软雅黑; font-weight: 400; src: local("Microsoft YaHei UI"), local("Microsoft YaHei"), local("微软雅黑"), local("微軟雅黑"), local("WenQuanYi Micro Hei"), local("Droid Sans Fallback"); unicode-range: U+2E80-9FFF, U+F900-FAFF, U+FE30-FE6F, U+FF00-FFEF, U+1B000-1B0FF, U+20000-2FA1F; }
@font-face { font-family: 微软雅黑; font-weight: bold; src: local("Microsoft YaHei UI"), local("Microsoft YaHei"), local("微软雅黑"), local("微軟雅黑"), local("WenQuanYi Micro Hei"), local("Droid Sans Fallback"); unicode-range: U+2E80-9FFF, U+F900-FAFF, U+FE30-FE6F, U+FF00-FFEF, U+1B000-1B0FF, U+20000-2FA1F; }
</style></defs><path d="M685.050636 739.791925c-11.949038 0-21.63209-9.683051-21.63209-21.63209l0-108.161665c0-11.949038 9.683051-21.63209 21.63209-21.63209s21.63209 9.683051 21.63209 21.63209l0 86.529575 86.529575 0c11.944173 0 21.63209 9.683051 21.63209 21.63209s-9.687916 21.63209-21.63209 21.63209L685.050636 739.791925 685.050636 739.791925zM933.820276 718.164701l-43.264179 0c-5.972087 0-10.819086-4.845783-10.819086-10.819086l0-10.81422-0.541258 0c-5.630303-96.492378-85.431246-173.062799-183.330896-173.062799-101.547366 0-183.872154 82.324788-183.872154 183.87702 0 101.547366 82.324788 183.872154 183.872154 183.872154 45.516787 0 86.994206-16.72914 119.098733-44.124111l-55.366473 0.750464c-5.51597 0.076628-9.82536-9.184364-9.64048-20.687016 0.189745-11.497787 4.812942-20.881626 10.324047-20.953388l109.76233-1.492413c0.58018-0.00973 6.285895-0.062032 8.85596-0.013379 11.497787 0.222585 20.881626 5.614491 20.957037 12.042694l1.487548 128.05443c0.076628 6.428203-9.189229 11.460081-20.687016 11.241146-11.497787-0.223801-20.881626-5.610842-20.957037-12.039045l-0.575315-49.427227c-43.720296 38.15689-100.66919 61.5429-163.261766 61.5429-137.390833 0-248.768423-111.382456-248.768423-248.768423 0-137.390833 111.377591-248.768423 248.768423-248.768423 127.979019 0 232.84813 96.78186 246.669071 221.069375 1.226041 1.752704 2.104218 27.699049 2.104218 27.699049C944.63328 713.317702 939.792362 718.164701 933.820276 718.164701L933.820276 718.164701zM685.050636 285.519258c11.949038 0 21.63209 9.683051 21.63209 21.63209 0 11.944173-9.683051 21.627224-21.63209 21.627224l-108.161665 0.004865c-11.949038 0-21.63209-9.687916-21.63209-21.63209 0-11.949038 9.683051-21.63209 21.63209-21.63209L685.050636 285.519258 685.050636 285.519258zM252.410058 674.895656l108.1568 0c11.949038 0 21.63209 9.683051 21.63209 21.63209s-9.683051 21.63209-21.63209 21.63209L252.410058 718.159836c-11.949038 0-21.63209-9.683051-21.63209-21.63209S240.46102 674.895656 252.410058 674.895656L252.410058 674.895656zM468.728523 436.940237c11.949038 0 21.63209 9.687916 21.63209 21.63209 0 11.949038-9.683051 21.63209-21.63209 21.63209l-86.529575 0 0 86.529575c0 11.949038-9.683051 21.63209-21.63209 21.63209-11.944173 0-21.63209-9.683051-21.63209-21.63209l0-86.529575L252.410058 480.204416c-11.949038 0-21.63209-9.683051-21.63209-21.63209 0-11.944173 9.683051-21.63209 21.63209-21.63209l86.52471 0 0-86.529575L252.410058 350.410662c-11.949038 0-21.63209-9.683051-21.63209-21.63209 0-11.944173 9.683051-21.627224 21.63209-21.627224l21.63209 0 0-43.264179c0-11.950255 9.683051-21.63209 21.633306-21.63209 11.944173 0 21.63209 9.681835 21.63209 21.63209l0 43.264179 86.523494 0 0-43.264179c0-11.950255 9.687916-21.63209 21.633306-21.63209 11.949038 0 21.63209 9.681835 21.63209 21.63209l0 43.264179 21.63209 0c11.949038 0 21.63209 9.683051 21.63209 21.627224 0 11.949038-9.683051 21.63209-21.63209 21.63209l-86.529575 0 0 86.529575L468.728523 436.940237 468.728523 436.940237 468.728523 436.940237zM793.212301 177.357593c0-23.893212-19.370968-43.264179-43.264179-43.264179L187.513789 134.093414c-23.894428 0-43.265396 19.370968-43.265396 43.264179l0 627.331818c0 23.894428 19.370968 43.264179 43.265396 43.264179l252.422221 0c13.142239 23.865237 29.500405 45.691936 48.528373 64.896269L165.8817 912.849859c-47.78764 0-86.529575-38.741935-86.529575-86.529575L79.352124 155.725503c0-47.78764 38.741935-86.529575 86.529575-86.529575l605.698512 0c47.78764 0 86.529575 38.741935 86.529575 86.529575l0 308.82864c-19.988854-13.384285-41.835014-24.107282-64.896269-32.269945L793.213517 177.357593 793.212301 177.357593 793.212301 177.357593zM793.212301 177.357593" p-id="17951"></path></svg>