<?xml version="1.0" standalone="no"?><!DOCTYPE svg PUBLIC "-//W3C//DTD SVG 1.1//EN" "http://www.w3.org/Graphics/SVG/1.1/DTD/svg11.dtd"><svg t="1614752185699" class="icon" viewBox="0 0 1024 1024" version="1.1" xmlns="http://www.w3.org/2000/svg" p-id="15823" xmlns:xlink="http://www.w3.org/1999/xlink" width="200" height="200"><defs><style type="text/css">@font-face { font-family: "MICROSOFT YAHEI"; src: local("MICROSOFT YAHEI"); font-weight: 400; }
@font-face { font-family: "MICROSOFT YAHEI"; font-weight: 400; src: local("Microsoft YaHei UI"), local("Microsoft YaHei"), local("微软雅黑"), local("微軟雅黑"), local("WenQuanYi Micro Hei"), local("Droid Sans Fallback"); unicode-range: U+2E80-9FFF, U+F900-FAFF, U+FE30-FE6F, U+FF00-FFEF, U+1B000-1B0FF, U+20000-2FA1F; }
@font-face { font-family: "MICROSOFT YAHEI"; font-weight: bold; src: local("Microsoft YaHei UI"), local("Microsoft YaHei"), local("微软雅黑"), local("微軟雅黑"), local("WenQuanYi Micro Hei"), local("Droid Sans Fallback"); unicode-range: U+2E80-9FFF, U+F900-FAFF, U+FE30-FE6F, U+FF00-FFEF, U+1B000-1B0FF, U+20000-2FA1F; }
@font-face { font-family: TAHOMA; src: local("TAHOMA"); font-weight: 400; }
@font-face { font-family: TAHOMA; font-weight: 400; src: local("Microsoft YaHei UI"), local("Microsoft YaHei"), local("微软雅黑"), local("微軟雅黑"), local("WenQuanYi Micro Hei"), local("Droid Sans Fallback"); unicode-range: U+2E80-9FFF, U+F900-FAFF, U+FE30-FE6F, U+FF00-FFEF, U+1B000-1B0FF, U+20000-2FA1F; }
@font-face { font-family: TAHOMA; font-weight: bold; src: local("Microsoft YaHei UI"), local("Microsoft YaHei"), local("微软雅黑"), local("微軟雅黑"), local("WenQuanYi Micro Hei"), local("Droid Sans Fallback"); unicode-range: U+2E80-9FFF, U+F900-FAFF, U+FE30-FE6F, U+FF00-FFEF, U+1B000-1B0FF, U+20000-2FA1F; }
@font-face { font-family: 微软雅黑; src: local("微软雅黑"); font-weight: 400; }
@font-face { font-family: 微软雅黑; font-weight: 400; src: local("Microsoft YaHei UI"), local("Microsoft YaHei"), local("微软雅黑"), local("微軟雅黑"), local("WenQuanYi Micro Hei"), local("Droid Sans Fallback"); unicode-range: U+2E80-9FFF, U+F900-FAFF, U+FE30-FE6F, U+FF00-FFEF, U+1B000-1B0FF, U+20000-2FA1F; }
@font-face { font-family: 微软雅黑; font-weight: bold; src: local("Microsoft YaHei UI"), local("Microsoft YaHei"), local("微软雅黑"), local("微軟雅黑"), local("WenQuanYi Micro Hei"), local("Droid Sans Fallback"); unicode-range: U+2E80-9FFF, U+F900-FAFF, U+FE30-FE6F, U+FF00-FFEF, U+1B000-1B0FF, U+20000-2FA1F; }
</style></defs><path d="M863.815741 253.837242 704.784748 253.837242l0-30.02892c0-53.93847-43.85788-97.927333-97.927333-97.927333L417.142585 125.880989c-53.93847 0-97.927333 43.85788-97.927333 97.927333l0 30.02892L159.160953 253.837242c-53.93847 0-97.927333 43.85788-97.927333 97.927333l0 511.871063c0 53.93847 43.85788 97.927333 97.927333 97.927333l502.334873 0 0 0 0 0 0.523933 0 0 0c17.804505-0.261966 32.075533-14.793938 32.075533-32.598442s-14.270005-32.336476-32.075533-32.598442l0-0.130983L159.160953 896.235105c-17.935488 0-32.598442-14.662955-32.598442-32.598442L126.562511 639.470183l228.453109 0 0 1.308809c0 52.367695 42.549072 94.915743 94.915743 94.915743l136.416949 0c52.367695 0 94.915743-42.549072 94.915743-94.915743l0-1.308809 215.150128 0 0 224.164433c0 17.935488-14.662955 32.598442-32.598442 32.598442l-42.287105 0 0 0.130983-0.130983 0c-18.066471 0-32.598442 14.531971-32.598442 32.598442 0 18.066471 14.531971 32.598442 32.598442 32.598442l0.130983 0 0 0 42.287105 0c53.93847 0 97.927333-43.85788 97.927333-97.927333L961.743074 351.764576C961.743074 297.695123 917.754211 253.837242 863.815741 253.837242zM384.544143 223.678362c0-17.935488 14.662955-32.598442 32.598442-32.598442l189.714829 0c17.935488 0 32.598442 14.662955 32.598442 32.598442l0 30.15888L384.544143 253.837242 384.544143 223.678362zM616.06717 640.780015c0 16.364713-13.354146 29.718859-29.718859 29.718859L449.931363 670.498874c-16.364713 0-29.718859-13.354146-29.718859-29.718859l0-71.089082c0-16.364713 13.354146-29.718859 29.718859-29.718859l136.416949 0c16.364713 0 29.718859 13.354146 29.718859 29.718859L616.06717 640.780015zM896.414183 574.142316 896.414183 574.142316l-215.150128 0 0-4.582365c0-52.367695-42.548048-94.915743-94.915743-94.915743L449.931363 474.644207c-52.367695 0-94.915743 42.548048-94.915743 94.915743l0 4.582365-228.453109 0L126.562511 351.764576c0-17.935488 14.662955-32.598442 32.598442-32.598442l704.654788 0c17.935488 0 32.598442 14.662955 32.598442 32.598442L896.414183 574.142316 896.414183 574.142316z" p-id="15824"></path></svg>