<?xml version="1.0" standalone="no"?><!DOCTYPE svg PUBLIC "-//W3C//DTD SVG 1.1//EN" "http://www.w3.org/Graphics/SVG/1.1/DTD/svg11.dtd"><svg t="1614743938650" class="icon" viewBox="0 0 1024 1024" version="1.1" xmlns="http://www.w3.org/2000/svg" p-id="4699" xmlns:xlink="http://www.w3.org/1999/xlink" width="200" height="200"><defs><style type="text/css">@font-face { font-family: "MICROSOFT YAHEI"; src: local("MICROSOFT YAHEI"); font-weight: 400; }
@font-face { font-family: "MICROSOFT YAHEI"; font-weight: 400; src: local("Microsoft YaHei UI"), local("Microsoft YaHei"), local("微软雅黑"), local("微軟雅黑"), local("WenQuanYi Micro Hei"), local("Droid Sans Fallback"); unicode-range: U+2E80-9FFF, U+F900-FAFF, U+FE30-FE6F, U+FF00-FFEF, U+1B000-1B0FF, U+20000-2FA1F; }
@font-face { font-family: "MICROSOFT YAHEI"; font-weight: bold; src: local("Microsoft YaHei UI"), local("Microsoft YaHei"), local("微软雅黑"), local("微軟雅黑"), local("WenQuanYi Micro Hei"), local("Droid Sans Fallback"); unicode-range: U+2E80-9FFF, U+F900-FAFF, U+FE30-FE6F, U+FF00-FFEF, U+1B000-1B0FF, U+20000-2FA1F; }
@font-face { font-family: TAHOMA; src: local("TAHOMA"); font-weight: 400; }
@font-face { font-family: TAHOMA; font-weight: 400; src: local("Microsoft YaHei UI"), local("Microsoft YaHei"), local("微软雅黑"), local("微軟雅黑"), local("WenQuanYi Micro Hei"), local("Droid Sans Fallback"); unicode-range: U+2E80-9FFF, U+F900-FAFF, U+FE30-FE6F, U+FF00-FFEF, U+1B000-1B0FF, U+20000-2FA1F; }
@font-face { font-family: TAHOMA; font-weight: bold; src: local("Microsoft YaHei UI"), local("Microsoft YaHei"), local("微软雅黑"), local("微軟雅黑"), local("WenQuanYi Micro Hei"), local("Droid Sans Fallback"); unicode-range: U+2E80-9FFF, U+F900-FAFF, U+FE30-FE6F, U+FF00-FFEF, U+1B000-1B0FF, U+20000-2FA1F; }
@font-face { font-family: 微软雅黑; src: local("微软雅黑"); font-weight: 400; }
@font-face { font-family: 微软雅黑; font-weight: 400; src: local("Microsoft YaHei UI"), local("Microsoft YaHei"), local("微软雅黑"), local("微軟雅黑"), local("WenQuanYi Micro Hei"), local("Droid Sans Fallback"); unicode-range: U+2E80-9FFF, U+F900-FAFF, U+FE30-FE6F, U+FF00-FFEF, U+1B000-1B0FF, U+20000-2FA1F; }
@font-face { font-family: 微软雅黑; font-weight: bold; src: local("Microsoft YaHei UI"), local("Microsoft YaHei"), local("微软雅黑"), local("微軟雅黑"), local("WenQuanYi Micro Hei"), local("Droid Sans Fallback"); unicode-range: U+2E80-9FFF, U+F900-FAFF, U+FE30-FE6F, U+FF00-FFEF, U+1B000-1B0FF, U+20000-2FA1F; }
</style></defs><path d="M102.26688 911.5904h819.46624V400.7936H102.26688v510.7968z m124.27264-714.8544H102.26688v127.488h819.46624v-127.488h-124.42624v15.6928a38.272 38.272 0 0 1-38.33344 38.28736c-21.15584 0-38.32832-17.152-38.32832-38.28736v-15.6928H303.20128v15.6928c0 21.13536-17.17248 38.28736-38.32832 38.28736-21.16096 0-38.33344-17.152-38.33344-38.28736v-15.6928z m733.52704-76.57472A38.272 38.272 0 0 1 998.4 158.44864v791.424a38.272 38.272 0 0 1-38.33344 38.28736H63.93344C42.77248 988.16 25.6 971.008 25.6 949.87264V158.44864c0-21.13536 17.17248-38.28736 38.33344-38.28736h162.60608V63.88736A38.272 38.272 0 0 1 264.87296 25.6a38.272 38.272 0 0 1 38.32832 38.28736v56.27392h417.44384V63.88736A38.272 38.272 0 0 1 758.97344 25.6a38.22592 38.22592 0 0 1 38.33344 38.28736v56.27392h162.7648zM300.2112 508.84608c21.16096 0 38.33344 17.152 38.33344 38.28736 0 21.13024-17.17248 38.28224-38.33344 38.28224H238.73024c-21.16096 0-38.33344-17.152-38.33344-38.28224 0-21.13536 17.17248-38.28736 38.33344-38.28736h61.48096z m242.49856 0c21.16096 0 38.33344 17.152 38.33344 38.28736 0 21.13024-17.17248 38.28224-38.33344 38.28224H481.2288c-21.16096 0-38.33344-17.152-38.33344-38.28224 0-21.13536 17.17248-38.28736 38.33344-38.28736h61.48096z m242.49856 0c21.16096 0 38.33344 17.152 38.33344 38.28736 0 21.13024-17.17248 38.28224-38.33344 38.28224h-61.48096c-21.16096 0-38.33344-17.152-38.33344-38.28224 0-21.13536 17.17248-38.28736 38.33344-38.28736h61.48096z m-484.99712 190.86848c21.16096 0 38.33344 17.152 38.33344 38.28224 0 21.13536-17.17248 38.28736-38.33344 38.28736H238.73024c-21.16096 0-38.33344-17.152-38.33344-38.28736 0-21.13024 17.17248-38.28224 38.33344-38.28224h61.48096z m242.49856 0c21.16096 0 38.33344 17.152 38.33344 38.28224 0 21.13536-17.17248 38.28736-38.33344 38.28736H481.2288c-21.16096 0-38.33344-17.152-38.33344-38.28736 0-21.13024 17.17248-38.28224 38.33344-38.28224h61.48096z m242.49856 0c21.16096 0 38.33344 17.152 38.33344 38.28224 0 21.13536-17.17248 38.28736-38.33344 38.28736h-61.48096c-21.16096 0-38.33344-17.152-38.33344-38.28736 0-21.13024 17.17248-38.28224 38.33344-38.28224h61.48096z" fill="#304156" p-id="4700"></path></svg>